<mxfile host="Electron" agent="Mozilla/5.0 (Macintosh; Intel Mac OS X 10_15_7) AppleWebKit/537.36 (KHTML, like Gecko) draw.io/24.7.8 Chrome/128.0.6613.36 Electron/32.0.1 Safari/537.36" version="24.7.8">
  <diagram name="Pagina-1" id="1lT8yuxHTUthxHgMNPtq">
    <mxGraphModel dx="1247" dy="789" grid="1" gridSize="10" guides="1" tooltips="1" connect="1" arrows="1" fold="1" page="1" pageScale="1" pageWidth="827" pageHeight="1169" math="0" shadow="0">
      <root>
        <mxCell id="0" />
        <mxCell id="1" parent="0" />
        <mxCell id="X8oTq-pb9E9ul9ol5JQp-74" value="" style="shape=arrow;endArrow=classic;html=1;rounded=0;fillColor=#000000;strokeColor=none;shadow=1;" edge="1" parent="1" source="X8oTq-pb9E9ul9ol5JQp-45">
          <mxGeometry width="50" height="50" relative="1" as="geometry">
            <mxPoint x="490" y="370" as="sourcePoint" />
            <mxPoint x="1161.7391304347825" y="460" as="targetPoint" />
          </mxGeometry>
        </mxCell>
        <mxCell id="X8oTq-pb9E9ul9ol5JQp-73" value="" style="shape=arrow;endArrow=classic;html=1;rounded=0;fillColor=#000000;strokeColor=none;shadow=1;" edge="1" parent="1" target="X8oTq-pb9E9ul9ol5JQp-45">
          <mxGeometry width="50" height="50" relative="1" as="geometry">
            <mxPoint x="80" y="460" as="sourcePoint" />
            <mxPoint x="540" y="320" as="targetPoint" />
          </mxGeometry>
        </mxCell>
        <mxCell id="X8oTq-pb9E9ul9ol5JQp-41" value="" style="ellipse;whiteSpace=wrap;html=1;aspect=fixed;fillColor=#D62828;strokeColor=#000000;shadow=1;" vertex="1" parent="1">
          <mxGeometry x="120" y="440" width="40" height="40" as="geometry" />
        </mxCell>
        <mxCell id="X8oTq-pb9E9ul9ol5JQp-42" value="" style="ellipse;whiteSpace=wrap;html=1;aspect=fixed;fillColor=#D62828;strokeColor=#000000;shadow=1;" vertex="1" parent="1">
          <mxGeometry x="200" y="440" width="40" height="40" as="geometry" />
        </mxCell>
        <mxCell id="X8oTq-pb9E9ul9ol5JQp-43" value="" style="rounded=1;whiteSpace=wrap;html=1;fillColor=#FCBF49;strokeColor=#000000;shadow=1;" vertex="1" parent="1">
          <mxGeometry x="280" y="440" width="40" height="40" as="geometry" />
        </mxCell>
        <mxCell id="X8oTq-pb9E9ul9ol5JQp-45" value="" style="shape=cylinder3;whiteSpace=wrap;html=1;boundedLbl=1;backgroundOutline=1;size=15;rotation=90;fillColor=#EAE2B7;strokeColor=#000000;shadow=1;" vertex="1" parent="1">
          <mxGeometry x="540" y="340" width="120" height="240" as="geometry" />
        </mxCell>
        <mxCell id="X8oTq-pb9E9ul9ol5JQp-50" value="" style="rounded=1;whiteSpace=wrap;html=1;fillColor=#00A896;strokeColor=#000000;shadow=1;" vertex="1" parent="1">
          <mxGeometry x="540" y="440" width="100" height="40" as="geometry" />
        </mxCell>
        <mxCell id="X8oTq-pb9E9ul9ol5JQp-51" value="" style="ellipse;whiteSpace=wrap;html=1;aspect=fixed;strokeColor=#000000;fillColor=#D62828;shadow=1;" vertex="1" parent="1">
          <mxGeometry x="555" y="450" width="20" height="20" as="geometry" />
        </mxCell>
        <mxCell id="X8oTq-pb9E9ul9ol5JQp-64" value="" style="shape=flexArrow;endArrow=classic;html=1;rounded=0;width=1.894736842105263;endSize=2.5978947368421053;endWidth=3.56786703601108;entryX=0.33;entryY=0.5;entryDx=0;entryDy=0;entryPerimeter=0;strokeColor=#000000;fillColor=#000000;shadow=1;" edge="1" parent="1">
          <mxGeometry width="50" height="50" relative="1" as="geometry">
            <mxPoint x="581.6999999999999" y="459.89000000000004" as="sourcePoint" />
            <mxPoint x="598.2999999999998" y="459.89000000000004" as="targetPoint" />
          </mxGeometry>
        </mxCell>
        <mxCell id="X8oTq-pb9E9ul9ol5JQp-66" value="map" style="text;html=1;align=center;verticalAlign=middle;whiteSpace=wrap;rounded=0;fontFamily=Fira Mono;fontColor=#000000;shadow=1;" vertex="1" parent="1">
          <mxGeometry x="540" y="415" width="100" height="25" as="geometry" />
        </mxCell>
        <mxCell id="X8oTq-pb9E9ul9ol5JQp-67" value="" style="ellipse;whiteSpace=wrap;html=1;aspect=fixed;fillColor=#D62828;strokeColor=#000000;shadow=1;" vertex="1" parent="1">
          <mxGeometry x="360" y="440" width="40" height="40" as="geometry" />
        </mxCell>
        <mxCell id="X8oTq-pb9E9ul9ol5JQp-68" value="" style="rounded=1;whiteSpace=wrap;html=1;fillColor=#FCBF49;strokeColor=#000000;shadow=1;" vertex="1" parent="1">
          <mxGeometry x="605" y="450" width="20" height="20" as="geometry" />
        </mxCell>
        <mxCell id="X8oTq-pb9E9ul9ol5JQp-69" value="" style="rounded=1;whiteSpace=wrap;html=1;fillColor=#FCBF49;strokeColor=#000000;shadow=1;" vertex="1" parent="1">
          <mxGeometry x="800" y="440" width="40" height="40" as="geometry" />
        </mxCell>
        <mxCell id="X8oTq-pb9E9ul9ol5JQp-70" value="" style="rounded=1;whiteSpace=wrap;html=1;fillColor=#FCBF49;strokeColor=#000000;shadow=1;" vertex="1" parent="1">
          <mxGeometry x="960" y="440" width="40" height="40" as="geometry" />
        </mxCell>
        <mxCell id="X8oTq-pb9E9ul9ol5JQp-71" value="" style="rounded=1;whiteSpace=wrap;html=1;fillColor=#FCBF49;strokeColor=#000000;shadow=1;" vertex="1" parent="1">
          <mxGeometry x="880" y="440" width="40" height="40" as="geometry" />
        </mxCell>
        <mxCell id="X8oTq-pb9E9ul9ol5JQp-72" value="" style="rounded=1;whiteSpace=wrap;html=1;fillColor=#FCBF49;strokeColor=#000000;shadow=1;" vertex="1" parent="1">
          <mxGeometry x="1040" y="440" width="40" height="40" as="geometry" />
        </mxCell>
      </root>
    </mxGraphModel>
  </diagram>
</mxfile>
